# xmcd
#
# Track frame offsets: 
#        150
#        16457
#        33562
#        54112
#        73457
#        91957
#        110272
#        129995
#        156230
#        175135
#        194240
#        214012
#        245882
#
# Disc length: 4440 seconds
#
# Revision: 0
# Processed by: cddbd v1.5.2PL0 Copyright (c) Steve Scherf et al.
# Submitted via: ExactAudioCopyFreeDBPlugin 1.0
#
DISCID=bd11560d
DTITLE=Wibbelstetz - De Kopp voll Droehm
DYEAR=2005
DGENRE=Indie
TTITLE0=Nex druss maache
TTITLE1=Loss mich emol noch de Sonn opjohn sehn
TTITLE2=De Kopp voll Droehm
TTITLE3=Du boes et Bess wat mir passiere konnt
TTITLE4=Schluss moet der Jarerei
TTITLE5=Kakushoell
TTITLE6=Du kress de Nas net voll
TTITLE7=Was moss ich dohn
TTITLE8=Ich brauch keine Millionen
TTITLE9=Frooch net wat Morje oes
TTITLE10=Korinthenkacker-Joe
TTITLE11=Aandaach
TTITLE12=data
EXTD=
EXTT0=
EXTT1=
EXTT2=
EXTT3=
EXTT4=
EXTT5=
EXTT6=
EXTT7=
EXTT8=
EXTT9=
EXTT10=
EXTT11=
EXTT12=
PLAYORDER=
